<mxfile host="app.diagrams.net" agent="Mozilla/5.0 (Windows NT 10.0; Win64; x64) AppleWebKit/537.36 (KHTML, like Gecko) Chrome/129.0.0.0 Safari/537.36" version="24.7.16">
  <diagram name="Page-1" id="pdPSbEEHl76K5Xy8k778">
    <mxGraphModel dx="733" dy="418" grid="1" gridSize="10" guides="1" tooltips="1" connect="1" arrows="1" fold="1" page="1" pageScale="1" pageWidth="850" pageHeight="1100" math="0" shadow="0">
      <root>
        <mxCell id="0" />
        <mxCell id="1" parent="0" />
        <mxCell id="CKcB4VOh1hotbumd1ckx-15" value="" style="rounded=0;whiteSpace=wrap;html=1;" vertex="1" parent="1">
          <mxGeometry x="30" y="20" width="290" height="520" as="geometry" />
        </mxCell>
        <mxCell id="CKcB4VOh1hotbumd1ckx-1" value="&lt;div style=&quot;background-color: rgb(255, 255, 255); font-family: Consolas, &amp;quot;Courier New&amp;quot;, monospace; font-size: 14px; line-height: 19px; white-space-collapse: preserve;&quot;&gt;&lt;span style=&quot;color: #008000;&quot;&gt;Program Menghitung Luas Persegi&lt;/span&gt;&lt;/div&gt;" style="text;html=1;align=center;verticalAlign=middle;resizable=0;points=[];autosize=1;strokeColor=none;fillColor=none;" vertex="1" parent="1">
          <mxGeometry x="50" y="40" width="260" height="30" as="geometry" />
        </mxCell>
        <mxCell id="CKcB4VOh1hotbumd1ckx-3" value="START" style="strokeWidth=2;html=1;shape=mxgraph.flowchart.terminator;whiteSpace=wrap;" vertex="1" parent="1">
          <mxGeometry x="100" y="80" width="110" height="40" as="geometry" />
        </mxCell>
        <mxCell id="CKcB4VOh1hotbumd1ckx-4" value="" style="verticalLabelPosition=bottom;verticalAlign=top;html=1;shape=hexagon;perimeter=hexagonPerimeter2;arcSize=6;size=0.2;" vertex="1" parent="1">
          <mxGeometry x="105" y="150" width="100" height="60" as="geometry" />
        </mxCell>
        <mxCell id="CKcB4VOh1hotbumd1ckx-11" value="" style="edgeStyle=orthogonalEdgeStyle;rounded=0;orthogonalLoop=1;jettySize=auto;html=1;exitX=0.562;exitY=1.042;exitDx=0;exitDy=0;exitPerimeter=0;" edge="1" parent="1" source="CKcB4VOh1hotbumd1ckx-4" target="CKcB4VOh1hotbumd1ckx-6">
          <mxGeometry relative="1" as="geometry" />
        </mxCell>
        <mxCell id="CKcB4VOh1hotbumd1ckx-5" value="p, l, L : int&lt;br&gt;ket&amp;nbsp; : str" style="text;html=1;align=center;verticalAlign=middle;resizable=0;points=[];autosize=1;strokeColor=none;fillColor=none;" vertex="1" parent="1">
          <mxGeometry x="115" y="160" width="80" height="40" as="geometry" />
        </mxCell>
        <mxCell id="CKcB4VOh1hotbumd1ckx-12" value="" style="edgeStyle=orthogonalEdgeStyle;rounded=0;orthogonalLoop=1;jettySize=auto;html=1;entryX=0.5;entryY=0;entryDx=0;entryDy=0;" edge="1" parent="1" source="CKcB4VOh1hotbumd1ckx-6" target="CKcB4VOh1hotbumd1ckx-7">
          <mxGeometry relative="1" as="geometry" />
        </mxCell>
        <mxCell id="CKcB4VOh1hotbumd1ckx-6" value="input p, l" style="shape=parallelogram;html=1;strokeWidth=2;perimeter=parallelogramPerimeter;whiteSpace=wrap;rounded=1;arcSize=12;size=0.23;" vertex="1" parent="1">
          <mxGeometry x="112" y="240" width="100" height="60" as="geometry" />
        </mxCell>
        <mxCell id="CKcB4VOh1hotbumd1ckx-13" value="" style="edgeStyle=orthogonalEdgeStyle;rounded=0;orthogonalLoop=1;jettySize=auto;html=1;" edge="1" parent="1" source="CKcB4VOh1hotbumd1ckx-7" target="CKcB4VOh1hotbumd1ckx-8">
          <mxGeometry relative="1" as="geometry" />
        </mxCell>
        <mxCell id="CKcB4VOh1hotbumd1ckx-7" value="L = p * l" style="rounded=1;whiteSpace=wrap;html=1;absoluteArcSize=1;arcSize=14;strokeWidth=2;" vertex="1" parent="1">
          <mxGeometry x="112" y="330" width="100" height="40" as="geometry" />
        </mxCell>
        <mxCell id="CKcB4VOh1hotbumd1ckx-14" value="" style="edgeStyle=orthogonalEdgeStyle;rounded=0;orthogonalLoop=1;jettySize=auto;html=1;" edge="1" parent="1" source="CKcB4VOh1hotbumd1ckx-8" target="CKcB4VOh1hotbumd1ckx-9">
          <mxGeometry relative="1" as="geometry" />
        </mxCell>
        <mxCell id="CKcB4VOh1hotbumd1ckx-8" value="output&amp;nbsp;&lt;div&gt;L&lt;/div&gt;" style="shape=parallelogram;html=1;strokeWidth=2;perimeter=parallelogramPerimeter;whiteSpace=wrap;rounded=1;arcSize=12;size=0.23;" vertex="1" parent="1">
          <mxGeometry x="112" y="400" width="100" height="60" as="geometry" />
        </mxCell>
        <mxCell id="CKcB4VOh1hotbumd1ckx-9" value="SELESAI" style="strokeWidth=2;html=1;shape=mxgraph.flowchart.terminator;whiteSpace=wrap;" vertex="1" parent="1">
          <mxGeometry x="112" y="490" width="100" height="30" as="geometry" />
        </mxCell>
        <mxCell id="CKcB4VOh1hotbumd1ckx-10" value="" style="endArrow=classic;html=1;rounded=0;exitX=0.5;exitY=1;exitDx=0;exitDy=0;exitPerimeter=0;entryX=0.5;entryY=0;entryDx=0;entryDy=0;" edge="1" parent="1" source="CKcB4VOh1hotbumd1ckx-3" target="CKcB4VOh1hotbumd1ckx-4">
          <mxGeometry width="50" height="50" relative="1" as="geometry">
            <mxPoint x="310" y="310" as="sourcePoint" />
            <mxPoint x="400" y="390" as="targetPoint" />
          </mxGeometry>
        </mxCell>
      </root>
    </mxGraphModel>
  </diagram>
</mxfile>
